<?xml version="1.0" encoding="UTF-8" standalone="no"?><!DOCTYPE svg PUBLIC "-//W3C//DTD SVG 1.1//EN" "http://www.w3.org/Graphics/SVG/1.1/DTD/svg11.dtd"><svg width="100%" height="100%" viewBox="0 0 1281 185" version="1.1" xmlns="http://www.w3.org/2000/svg" xmlns:xlink="http://www.w3.org/1999/xlink" xml:space="preserve" style="fill-rule:evenodd;clip-rule:evenodd;stroke-linejoin:round;stroke-miterlimit:1.41421;"><path d="M292.875,45.359l-32.632,0l0,78.922l-50.276,-78.922l-42.495,0l0,137.923l32.632,0l0,-94.668l58.429,94.668l34.342,0l0,-137.923Z" style="fill:#030404;fill-rule:nonzero;"/><path d="M428.079,156.533l-64.125,0l0,-33.957l59.573,0l0,-26.749l-59.573,0l0,-23.719l64.125,0l0,-26.749l-99.792,0l0,137.923l99.792,0l0,-26.749Z" style="fill:#030404;fill-rule:nonzero;"/><path d="M565.831,45.359l-121.797,0l0,26.749l43.062,0l0,111.174l35.667,0l0,-111.174l43.068,0l0,-26.749Z" style="fill:#030404;fill-rule:nonzero;"/><path d="M748.925,46.284l-53.944,114.448l-3.56,-114.448l-18.356,0l-53.57,112.951l-3.747,-112.951l-18.169,0l5.618,136.177l19.852,0l53.202,-112.764l3.929,112.764l20.793,0l65.56,-136.177l-17.608,0Z" style="fill:#030404;fill-rule:nonzero;"/><path d="M855.365,46.284l-23.979,0l-81.104,136.177l19.104,0l22.477,-38.214l58.632,0l4.682,38.214l18.356,0l-18.168,-136.177ZM800.479,129.264l39.523,-67.056l8.617,67.056l-48.14,0Z" style="fill:#030404;fill-rule:nonzero;"/><path d="M1001.39,46.284l-51.32,60.878l-23.417,-60.878l-19.479,0l30.346,78.298l-13.299,57.879l17.981,0l13.86,-59.755l65.373,-76.422l-20.045,0Z" style="fill:#030404;fill-rule:nonzero;"/><path d="M1083.11,180.964c7.488,-2.437 14.047,-5.997 19.665,-10.493c5.244,-4.308 9.365,-9.365 12.364,-15.17c2.811,-5.992 4.308,-11.802 4.308,-17.794c0,-7.12 -2.245,-13.112 -6.741,-17.795c-4.495,-4.682 -11.054,-8.242 -19.67,-10.679c-4.496,-1.123 -9.926,-2.245 -16.298,-3.555c-6.553,-1.315 -11.61,-2.438 -15.544,-3.373c-6.185,-1.502 -10.306,-3.747 -12.738,-6.933c-2.437,-2.993 -3.56,-6.553 -3.56,-10.487c0,-7.494 3.373,-13.673 9.926,-18.543c6.559,-4.875 15.55,-7.307 26.599,-7.307c8.803,0 17.233,1.497 25.288,4.308c8.055,2.812 14.235,6.18 18.543,10.114l1.315,0l4.121,-19.479c-5.623,-2.624 -12.364,-5.056 -20.045,-6.932c-7.868,-2.058 -16.485,-2.999 -26.037,-2.999c-17.42,0 -31.655,4.308 -42.708,12.925c-11.049,8.616 -16.48,19.483 -16.48,32.408c0,7.681 2.619,14.048 7.863,19.291c5.249,5.244 12.738,8.804 22.295,11.054c4.87,1.123 10.113,2.245 15.544,3.181c5.431,0.94 10.113,2.063 14.048,3.186c4.869,1.309 8.429,3.372 10.866,6.184c2.433,2.806 3.747,6.366 3.747,10.488c0,8.055 -3.372,14.421 -10.305,19.665c-6.928,5.062 -17.046,7.681 -29.971,7.681c-7.863,0 -16.106,-1.497 -24.722,-4.308c-8.43,-2.994 -15.55,-7.302 -21.542,-12.738l-1.309,0l-4.309,20.793c7.676,3.747 15.545,6.559 23.6,8.43c7.868,1.87 16.298,2.811 25.101,2.811c10.301,0 19.291,-1.315 26.786,-3.934Z" style="fill:#030404;fill-rule:nonzero;"/><rect x="0.961" y="46.336" width="139.284" height="136.883" style="fill:#f15b24;"/><path d="M1280.93,113.575l-57.63,33.619l-60.056,36.025l0,-69.644l0,-67.239l60.056,33.62l57.63,33.619Z" style="fill:#f15b24;"/><path d="M1273.22,7.744c-5.119,-5.182 -11.366,-7.744 -18.605,-7.744c-7.307,0 -13.549,2.562 -18.673,7.744c-5.181,5.119 -7.738,11.365 -7.738,18.605c0,7.307 2.557,13.548 7.738,18.667c5.124,5.187 11.366,7.744 18.673,7.744c7.239,0 13.486,-2.557 18.605,-7.744c5.182,-5.119 7.744,-11.36 7.744,-18.667c0,-7.24 -2.562,-13.486 -7.744,-18.605ZM1270.72,42.584c-4.496,4.558 -9.864,6.803 -16.106,6.803c-6.309,0 -11.678,-2.245 -16.173,-6.803c-4.433,-4.495 -6.683,-9.926 -6.683,-16.235c0,-6.304 2.25,-11.673 6.683,-16.23c4.495,-4.496 9.864,-6.746 16.173,-6.746c6.242,0 11.61,2.25 16.106,6.746c4.433,4.557 6.683,9.926 6.683,16.23c0,6.309 -2.25,11.74 -6.683,16.235ZM1259.86,27.601c1.995,-0.816 3.56,-1.814 4.745,-3.123c1.122,-1.31 1.683,-2.999 1.683,-4.932c0,-1.502 -0.311,-2.749 -0.873,-3.747c-0.623,-0.936 -1.559,-1.814 -2.874,-2.5c-1.184,-0.624 -2.369,-0.998 -3.617,-1.185c-1.252,-0.187 -2.811,-0.249 -4.745,-0.249l-9.494,0l0,27.907l5.061,0l0,-10.799l4.87,0l10.113,10.799l6.803,0l-11.672,-12.171ZM1260.42,22.165c-0.249,0.561 -0.686,1.128 -1.31,1.627c-0.623,0.499 -1.377,0.81 -2.25,0.998c-0.935,0.187 -1.996,0.311 -3.248,0.311l-3.867,0l0,-9.427l4.496,0c1.122,0 1.995,0.062 2.681,0.125c0.749,0.125 1.372,0.374 2.001,0.686c0.686,0.374 1.185,0.873 1.435,1.434c0.311,0.561 0.436,1.19 0.436,1.939c0,0.935 -0.125,1.683 -0.374,2.307Z" style="fill:#030404;fill-rule:nonzero;"/></svg>